# xmcd
#
# Track frame offsets:
#	150
#	20415
#	34072
#	50527
#	69070
#	83980
#	95752
#	114927
#	130802
#	153237
#	168395
#	185307
#
# Disc length: 2780 seconds
#
# Revision: 1
# Processed by: cddbd v1.4PL0 Copyright (c) Steve Scherf et al.
# Submitted via: audiograbber 1.82.01
#
DISCID=8f0ada0c
DTITLE=John Kirkbride - Blue Images
DYEAR=1900
DGENRE=Blues Deutsch
TTITLE0=Blues For Robert Johnson
TTITLE1=Hey Now Baby
TTITLE2=Easy Come And Easy Go
TTITLE3=Here We Go Again
TTITLE4=Ausländer
TTITLE5=Gas Tax Blues
TTITLE6=Freedom Blues
TTITLE7=The Wind In Your Sails
TTITLE8=Letter From New Orleans
TTITLE9=I Ain'T Got No Home
TTITLE10=Be Like You
TTITLE11=Railway Engine Blues
EXTD=
EXTT0=
EXTT1=
EXTT2=
EXTT3=
EXTT4=
EXTT5=
EXTT6=
EXTT7=
EXTT8=
EXTT9=
EXTT10=
EXTT11=
PLAYORDER=
